Coordinates
version=1
nRows=30
nColumns=38
inDegrees=no

Units are S.I. units (second, meters, Newtons, ...)
If the header above contains a line with 'inDegrees', this indicates whether rotational values are in degrees (yes) or radians (no).

endheader
time	pelvis_tilt	pelvis_list	pelvis_rotation	pelvis_tx	pelvis_ty	pelvis_tz	hip_flexion_r	hip_adduction_r	hip_rotation_r	knee_angle_r	ankle_angle_r	subtalar_angle_r	mtp_angle_r	hip_flexion_l	hip_adduction_l	hip_rotation_l	knee_angle_l	ankle_angle_l	subtalar_angle_l	mtp_angle_l	lumbar_extension	lumbar_bending	lumbar_rotation	arm_flex_r	arm_add_r	arm_rot_r	elbow_flex_r	pro_sup_r	wrist_flex_r	wrist_dev_r	arm_flex_l	arm_add_l	arm_rot_l	elbow_flex_l	pro_sup_l	wrist_flex_l	wrist_dev_l
1.46	0.343932	1.47638	-1.7902	0.999168	0.426254	0.914554	0.329915	-0.0921507	-0.314529	0.0900853	0.0626679	0	0	-0.391737	0.0251157	-0.126828	0.104342	0.307403	0	0	-0.246262	-0.041664	-0.22906	-0.199161	-0.187509	0.134945	0.702772	0.481782	0	0	0.0895535	-0.499776	0.256699	0.757909	1.2418	0	0
1.47	0.330374	1.47682	-1.77069	0.999368	0.414541	0.913441	0.334775	-0.0939154	-0.331471	0.128674	0.0711519	0	0	-0.39501	0.017418	-0.133105	0.125081	0.315574	0	0	-0.245077	-0.0353607	-0.235654	-0.201061	-0.190151	0.137121	0.707677	0.480136	0	0	0.0858477	-0.495547	0.250294	0.75689	1.24772	0	0
1.48	0.316553	1.47756	-1.75022	0.99951	0.402649	0.912441	0.338012	-0.0952846	-0.346159	0.16214	0.0781366	0	0	-0.396503	0.00873703	-0.139438	0.148739	0.323283	0	0	-0.242982	-0.0288336	-0.243168	-0.203309	-0.192712	0.139561	0.712081	0.478398	0	0	0.0804121	-0.491062	0.242626	0.756104	1.25427	0	0
1.49	0.297636	1.47889	-1.72469	0.999504	0.390694	0.911615	0.339193	-0.0946299	-0.355057	0.185617	0.0758771	0	0	-0.395505	-0.0014314	-0.146229	0.176094	0.329917	0	0	-0.240279	-0.0217159	-0.250756	-0.205481	-0.194989	0.141692	0.715657	0.476487	0	0	0.073685	-0.48617	0.233734	0.755898	1.2608	0	0
1.5	0.268353	1.48082	-1.68983	0.999253	0.378542	0.911001	0.337829	-0.0909234	-0.358837	0.198833	0.060285	0	0	-0.392041	-0.0133759	-0.155491	0.207639	0.334267	0	0	-0.23651	-0.0139482	-0.256822	-0.207965	-0.197044	0.143226	0.71802	0.474738	0	0	0.0664196	-0.480474	0.224724	0.755019	1.2671	0	0
1.51	0.218111	1.48516	-1.63444	0.998655	0.36615	0.910342	0.335867	-0.0836501	-0.361701	0.204971	0.0349718	0	0	-0.379665	-0.0304633	-0.17556	0.254024	0.343196	0	0	-0.22943	-0.00475123	-0.26174	-0.211116	-0.198545	0.144025	0.718533	0.478974	0	0	0.0579896	-0.474022	0.215059	0.753559	1.26994	0	0
1.52	0.182581	1.48662	-1.59541	0.997849	0.353575	0.910177	0.330237	-0.0779795	-0.364252	0.211458	0.0133176	0	0	-0.37503	-0.0432478	-0.181869	0.287265	0.338327	0	0	-0.224999	0.00218997	-0.264978	-0.21431	-0.199736	0.145151	0.718837	0.476151	0	0	0.0497993	-0.468018	0.207355	0.752006	1.27654	0	0
1.53	0.131631	1.48837	-1.54099	0.99683	0.341015	0.910139	0.326331	-0.0720412	-0.368587	0.223568	3.73265e-07	0	0	-0.364507	-0.059472	-0.191069	0.331269	0.334	0	0	-0.220027	0.0100376	-0.267421	-0.217728	-0.200609	0.145844	0.718718	0.473807	0	0	0.0419134	-0.461833	0.200376	0.750193	1.2819	0	0
1.54	0.0644219	1.4893	-1.47069	0.995732	0.328408	0.910385	0.324402	-0.0663977	-0.373055	0.244002	-0.00323319	0	0	-0.351536	-0.0779259	-0.198479	0.380096	0.325437	0	0	-0.215461	0.0190892	-0.26892	-0.221068	-0.201579	0.146257	0.717931	0.471937	0	0	0.0341002	-0.455034	0.193958	0.748108	1.28602	0	0
1.55	-0.0169396	1.48968	-1.38781	0.994566	0.315927	0.910919	0.325272	-0.0607816	-0.375509	0.271864	0.0018357	0	0	-0.335975	-0.0972094	-0.202714	0.43193	0.310447	0	0	-0.211242	0.0293328	-0.268718	-0.223748	-0.203068	0.146625	0.716626	0.469988	0	0	0.0265006	-0.447202	0.187515	0.74507	1.28983	0	0
1.56	-0.117947	1.49048	-1.28747	0.993216	0.303649	0.911569	0.328792	-0.0538017	-0.375514	0.302665	0.0122721	0	0	-0.315941	-0.117273	-0.204138	0.487149	0.28853	0	0	-0.206145	0.0406936	-0.266383	-0.225716	-0.205298	0.147679	0.715023	0.467413	0	0	0.0189525	-0.438322	0.180612	0.7417	1.29358	0	0
1.57	-0.247321	1.49238	-1.16048	0.991639	0.291615	0.912102	0.334468	-0.0447586	-0.375253	0.331467	0.0235577	0	0	-0.289399	-0.138486	-0.202165	0.546525	0.259165	0	0	-0.198648	0.0529254	-0.262363	-0.227299	-0.208153	0.150175	0.713379	0.464069	0	0	0.0111871	-0.429197	0.174333	0.738766	1.29723	0	0
1.58	-0.413102	1.49573	-0.997494	0.989914	0.279812	0.912294	0.341853	-0.0340678	-0.3762	0.354356	0.0329859	0	0	-0.254756	-0.16055	-0.195773	0.610135	0.222385	0	0	-0.187361	0.0654202	-0.258719	-0.228583	-0.211419	0.154708	0.711717	0.458191	0	0	0.00185756	-0.420261	0.167309	0.737311	1.30157	0	0
1.59	-0.615247	1.49917	-0.799084	0.988049	0.268141	0.912147	0.349604	-0.0218952	-0.377018	0.370006	0.0399085	0	0	-0.214253	-0.181649	-0.18591	0.674862	0.177747	0	0	-0.17278	0.0772823	-0.255281	-0.230067	-0.215221	0.161148	0.710813	0.449902	0	0	-0.00934797	-0.411566	0.159504	0.737567	1.30556	0	0
1.6	-0.811313	1.50052	-0.608114	0.986078	0.256561	0.911994	0.3536	-0.00910197	-0.375723	0.378086	0.0456926	0	0	-0.174413	-0.198988	-0.172866	0.735476	0.129779	0	0	-0.158707	0.0870419	-0.251456	-0.231737	-0.219964	0.171769	0.711988	0.432081	0	0	-0.021474	-0.403769	0.152777	0.739502	1.30626	0	0
1.61	-0.982155	1.49932	-0.442738	0.984002	0.244998	0.911916	0.352803	0.00444049	-0.374077	0.38013	0.0524857	0	0	-0.136512	-0.214433	-0.159374	0.793188	0.0824604	0	0	-0.146347	0.0953299	-0.247503	-0.233825	-0.223466	0.178868	0.713432	0.425066	0	0	-0.0338042	-0.397035	0.147057	0.742624	1.30961	0	0
1.62	-1.11693	1.49625	-0.313677	0.981872	0.233514	0.911969	0.348147	0.0183552	-0.370906	0.378475	0.0599828	0	0	-0.101095	-0.228298	-0.14642	0.84799	0.0423245	0	0	-0.136115	0.102521	-0.243318	-0.236155	-0.226655	0.185224	0.716027	0.419597	0	0	-0.0456902	-0.391285	0.143247	0.74635	1.31068	0	0
1.63	-1.25167	1.48789	-0.184659	0.979869	0.222001	0.911533	0.343212	0.0369572	-0.367387	0.375933	0.0683693	0	0	-0.0607496	-0.262752	-0.166199	0.912972	0.0166859	0	0	-0.125311	0.114543	-0.238047	-0.240991	-0.231946	0.190226	0.723643	0.415091	0	0	-0.0570928	-0.384916	0.141159	0.750727	1.3111	0	0
1.64	-1.2922	1.48371	-0.149911	0.977888	0.210819	0.912329	0.332626	0.0493056	-0.360023	0.373678	0.0763668	0	0	-0.03348	-0.27166	-0.153658	0.955276	0.00846925	0	0	-0.121698	0.119301	-0.232307	-0.243168	-0.234463	0.195136	0.727379	0.409668	0	0	-0.0651706	-0.379996	0.141257	0.75249	1.31131	0	0
1.65	-1.27778	1.48104	-0.169172	0.976107	0.199807	0.913785	0.317697	0.0583771	-0.352281	0.372873	0.0851528	0	0	-0.0120103	-0.276524	-0.14139	0.991003	0.0112552	0	0	-0.123356	0.121253	-0.226519	-0.244145	-0.235474	0.198369	0.729046	0.40406	0	0	-0.0705677	-0.376057	0.143925	0.752764	1.31144	0	0
1.66	-1.24385	1.48033	-0.207281	0.974469	0.189	0.915509	0.30222	0.0632812	-0.347475	0.375066	0.0963365	0	0	0.00792402	-0.278086	-0.12972	1.02389	0.0239231	0	0	-0.126846	0.120413	-0.220634	-0.244953	-0.235814	0.20154	0.730594	0.389009	0	0	-0.0738681	-0.373879	0.152684	0.752001	1.30386	0	0
1.67	-1.18898	1.48205	-0.266672	0.972868	0.178295	0.917442	0.287175	0.062135	-0.350086	0.382377	0.109465	0	0	0.0255118	-0.275797	-0.120432	1.05217	0.042049	0	0	-0.131918	0.115966	-0.214269	-0.245442	-0.234012	0.199489	0.729617	0.390518	0	0	-0.0763075	-0.371656	0.158816	0.750153	1.30366	0	0
1.68	-1.13336	1.48335	-0.326944	0.971307	0.167791	0.919534	0.268633	0.0638745	-0.345581	0.380502	0.118655	0	0	0.0430811	-0.273681	-0.113727	1.07588	0.0611837	0	0	-0.137173	0.111553	-0.207571	-0.245455	-0.232399	0.198323	0.727908	0.387714	0	0	-0.0777306	-0.369126	0.164531	0.7465	1.31161	0	0
1.69	-1.0858	1.48506	-0.379647	0.969706	0.157486	0.921586	0.249955	0.0656354	-0.340728	0.375364	0.12568	0	0	0.0616412	-0.271227	-0.109626	1.09464	0.077625	0	0	-0.141397	0.106435	-0.199863	-0.245707	-0.228536	0.189347	0.723346	0.406413	0	0	-0.0782118	-0.368854	0.179631	0.744195	1.2896	0	0
1.7	-1.04644	1.48726	-0.42431	0.96815	0.147298	0.923564	0.231334	0.0670109	-0.337112	0.367655	0.131425	0	0	0.0811788	-0.268113	-0.107265	1.10853	0.0916834	0	0	-0.144396	0.100837	-0.192893	-0.245844	-0.227137	0.189264	0.720801	0.400152	0	0	-0.0797177	-0.366479	0.184416	0.740941	1.2982	0	0
1.71	-1.01699	1.49015	-0.459026	0.966672	0.137263	0.925417	0.213691	0.0678871	-0.33418	0.358649	0.136509	0	0	0.102096	-0.26439	-0.106319	1.11805	0.104309	0	0	-0.145921	0.0948129	-0.186145	-0.246115	-0.225606	0.188738	0.717358	0.395315	0	0	-0.081324	-0.364372	0.18989	0.737956	1.30535	0	0
1.72	-0.990623	1.49364	-0.490657	0.965271	0.127433	0.927155	0.196644	0.0682567	-0.330829	0.348603	0.140805	0	0	0.123785	-0.259994	-0.106881	1.12337	0.116091	0	0	-0.146765	0.0882975	-0.17971	-0.246437	-0.224212	0.188624	0.713814	0.390789	0	0	-0.0830771	-0.362461	0.194973	0.735602	1.31217	0	0
1.73	-0.963587	1.49769	-0.522954	0.963955	0.117804	0.928797	0.180116	0.0680272	-0.326504	0.338059	0.144519	0	0	0.145838	-0.254906	-0.109164	1.1247	0.127967	0	0	-0.14732	0.0813429	-0.173369	-0.247109	-0.223529	0.189961	0.711075	0.386326	0	0	-0.0848344	-0.360555	0.199026	0.73396	1.31877	0	0
1.74	-0.933389	1.50219	-0.558209	0.962767	0.108269	0.930371	0.163901	0.0670552	-0.322386	0.32735	0.148121	0	0	0.167763	-0.249113	-0.113032	1.12209	0.139985	0	0	-0.147443	0.0740546	-0.167247	-0.248384	-0.223572	0.192841	0.709452	0.380166	0	0	-0.0867517	-0.358446	0.201839	0.732589	1.3277	0	0
1.75	-0.892721	1.50692	-0.603687	0.961704	0.098804	0.931931	0.147171	0.0654191	-0.318527	0.315625	0.15132	0	0	0.188785	-0.242279	-0.117933	1.11528	0.151376	0	0	-0.147706	0.0663712	-0.161272	-0.250049	-0.223938	0.196177	0.708386	0.374519	0	0	-0.0887005	-0.356224	0.203828	0.73152	1.33676	0	0
